<svg width="40" height="40" viewBox="0 0 40 40" fill="none" xmlns="http://www.w3.org/2000/svg">
<path fill-rule="evenodd" clip-rule="evenodd" d="M30.3205 10.9316C28.0756 8.32533 24.839 6.78066 21.3997 6.67415C21.2567 6.66913 21.1136 6.66663 20.9705 6.66663C17.6874 6.66826 14.5385 7.9686 12.2117 10.2835C8.19088 14.2939 7.42284 20.527 10.35 25.3925C10.9009 26.2976 10.7642 27.4614 10.0187 28.2145L5.39831 32.8313C5.13761 33.0948 4.99411 33.4522 5.00019 33.8228C4.99945 34.1442 5.12998 34.452 5.36161 34.675C5.85555 35.1182 6.6076 35.1067 7.08778 34.6487L11.7703 29.9679C12.5071 29.2209 13.6595 29.0744 14.56 29.6133C16.4912 30.7783 18.7044 31.3934 20.9602 31.3921C24.5252 31.3909 27.9173 29.8563 30.2706 27.1798C34.3352 22.5325 34.3565 15.6037 30.3205 10.9316ZM28.5096 25.432C26.6281 27.6432 23.8702 28.9174 20.9658 28.9172C18.0623 28.9187 15.3044 27.6463 13.4221 25.4367C10.3091 21.7356 10.3091 16.3335 13.4221 12.6323C15.3027 10.4206 18.0599 9.14549 20.964 9.14434C23.8678 9.14265 26.6261 10.4151 28.5087 12.6248C31.6254 16.3273 31.6258 21.7338 28.5096 25.4367V25.432Z" fill="white"/>
<mask id="mask0_3010_483" style="mask-type:luminance" maskUnits="userSpaceOnUse" x="5" y="6" width="29" height="29">
<path fill-rule="evenodd" clip-rule="evenodd" d="M30.3205 10.9316C28.0756 8.32533 24.839 6.78066 21.3997 6.67415C21.2567 6.66913 21.1136 6.66663 20.9705 6.66663C17.6874 6.66826 14.5385 7.9686 12.2117 10.2835C8.19088 14.2939 7.42284 20.527 10.35 25.3925C10.9009 26.2976 10.7642 27.4614 10.0187 28.2145L5.39831 32.8313C5.13761 33.0948 4.99411 33.4522 5.00019 33.8228C4.99945 34.1442 5.12998 34.452 5.36161 34.675C5.85555 35.1182 6.6076 35.1067 7.08778 34.6487L11.7703 29.9679C12.5071 29.2209 13.6595 29.0744 14.56 29.6133C16.4912 30.7783 18.7044 31.3934 20.9602 31.3921C24.5252 31.3909 27.9173 29.8563 30.2706 27.1798C34.3352 22.5325 34.3565 15.6037 30.3205 10.9316ZM28.5096 25.432C26.6281 27.6432 23.8702 28.9174 20.9658 28.9172C18.0623 28.9187 15.3044 27.6463 13.4221 25.4367C10.3091 21.7356 10.3091 16.3335 13.4221 12.6323C15.3027 10.4206 18.0599 9.14549 20.964 9.14434C23.8678 9.14265 26.6261 10.4151 28.5087 12.6248C31.6254 16.3273 31.6258 21.7338 28.5096 25.4367V25.432Z" fill="white"/>
</mask>
<g mask="url(#mask0_3010_483)">
<path fill-rule="evenodd" clip-rule="evenodd" d="M40 40H0V0H40V40Z" fill="white"/>
</g>
</svg>
